<svg width="22" height="25" viewBox="0 0 22 25" fill="none" xmlns="http://www.w3.org/2000/svg">
<path d="M19.109 12.3653C18.4479 13.0793 17.7428 13.7403 16.9936 14.3838C15.9447 15.2916 14.8782 16.173 13.7941 17.0192C12.6306 16.3052 11.7933 15.9439 11.6522 16.129C11.5288 16.2964 12.0136 16.9134 12.8862 17.7155C9.95992 19.8926 6.86616 21.8141 3.54323 23.3918C3.0232 23.6386 2.47672 23.8149 1.93906 24.0088C1.79804 24.0617 1.6482 24.0617 1.5865 24.0705C0.74034 24.1674 0.484731 23.9383 0.519987 23.1626C0.625757 20.7476 1.37496 18.4823 2.1506 16.2259C2.36214 15.6089 2.58249 14.9919 2.81166 14.3749C3.98394 15.0889 4.82128 15.4591 4.96231 15.274C5.11215 15.0713 4.40702 14.2604 3.22593 13.2467C4.07208 11.0608 5.01519 8.91018 6.12577 6.84767C8.34694 8.49591 10.3213 9.58005 10.5417 9.28037C10.762 8.98069 9.13139 7.38533 6.88379 5.71946L6.78683 5.64895C7.17466 4.98789 7.58011 4.32683 8.012 3.6834C8.54966 2.8725 9.21072 2.13211 9.86297 1.40935C10.7356 0.448611 11.8638 0.122488 13.1242 0.404541C17.1611 1.30358 19.964 3.6217 21.2861 7.59687C21.5505 8.40777 21.3125 9.20104 20.8983 9.93262C20.6162 10.4262 20.3077 10.8934 19.964 11.3341C17.8309 9.77396 15.98 8.76915 15.7684 9.0512C15.5657 9.33325 17.0377 10.7876 19.109 12.3653Z" fill="#F3603F"/>
</svg>
