<svg width="20" height="20" viewBox="0 0 20 20" fill="none" xmlns="http://www.w3.org/2000/svg">
<path d="M11.5522 5.26726L11.2961 5.01064V5.37323V12.8119C11.2961 13.1218 11.173 13.419 10.9538 13.6382C10.7347 13.8573 10.4375 13.9804 10.1276 13.9804C9.81772 13.9804 9.52052 13.8573 9.30139 13.6382C9.08226 13.419 8.95916 13.1218 8.95916 12.8119V5.37323V5.01087L8.70305 5.26721L7.22514 6.74643C7.22513 6.74645 7.22511 6.74646 7.2251 6.74648C7.00567 6.96573 6.70814 7.08883 6.39795 7.08873C6.08774 7.08862 5.79028 6.96528 5.57101 6.74585C5.35173 6.52642 5.2286 6.22887 5.22871 5.91866C5.22882 5.60845 5.35216 5.31098 5.57159 5.09171L9.3015 1.36444L9.30184 1.3641C9.41006 1.25526 9.53872 1.16889 9.68044 1.10995C9.82216 1.05101 9.97413 1.02067 10.1276 1.02067C10.2811 1.02067 10.4331 1.05101 10.5748 1.10995C10.7165 1.16889 10.8452 1.25526 10.9534 1.3641L10.9537 1.36442L14.6836 5.09295C14.6836 5.09296 14.6836 5.09297 14.6836 5.09297C14.6836 5.09298 14.6836 5.093 14.6836 5.09301C14.7922 5.20165 14.8783 5.3306 14.937 5.47251C14.9957 5.61444 15.0259 5.76654 15.0259 5.92014C15.0258 6.07375 14.9955 6.22583 14.9367 6.36772C14.8778 6.50961 14.7916 6.63852 14.683 6.74709C14.5743 6.85567 14.4454 6.94178 14.3034 7.00051C14.1615 7.05924 14.0094 7.08944 13.8558 7.08938C13.7022 7.08933 13.5501 7.05902 13.4082 7.00019C13.2663 6.94136 13.1374 6.85516 13.0288 6.74651L11.5522 5.26726ZM3.53534 11.2697H3.38534V11.4197V16.6935V16.8435H3.53534H16.7199H16.8699V16.6935V11.4197V11.2697H16.7199H15.4014C15.0915 11.2697 14.7943 11.1466 14.5752 10.9274C14.3561 10.7083 14.233 10.4111 14.233 10.1012C14.233 9.79131 14.3561 9.49411 14.5752 9.27499C14.7943 9.05586 15.0915 8.93275 15.4014 8.93275H16.7199C17.3794 8.93275 18.012 9.19477 18.4784 9.66115C18.9448 10.1275 19.2068 10.7601 19.2068 11.4197V16.6935C19.2068 17.353 18.9448 17.9856 18.4784 18.452C18.012 18.9184 17.3794 19.1804 16.7199 19.1804H3.53534C2.87578 19.1804 2.24322 18.9184 1.77684 18.452C1.31045 17.9856 1.04844 17.353 1.04844 16.6935V11.4197C1.04844 10.7601 1.31045 10.1275 1.77684 9.66115C2.24322 9.19477 2.87578 8.93275 3.53534 8.93275H4.8538C5.16369 8.93275 5.46089 9.05586 5.68002 9.27499C5.89915 9.49411 6.02225 9.79131 6.02225 10.1012C6.02225 10.4111 5.89915 10.7083 5.68002 10.9274C5.46089 11.1466 5.16369 11.2697 4.8538 11.2697H3.53534Z" fill="#181725" stroke="white" stroke-width="0.3"/>
</svg>
