<svg width="25" height="25" viewBox="0 0 25 25" fill="none" xmlns="http://www.w3.org/2000/svg">
<path d="M9.95179 9.58781C10.4818 10.0628 11.1838 10.3518 11.9518 10.3518H13.9518C14.6899 10.3528 15.4023 10.0807 15.9518 9.58781H9.95179ZM9.95179 9.58781C9.40232 10.0807 8.68992 10.3528 7.95179 10.3518L9.95179 9.58781ZM9.00179 4.35181V4.30181H8.95179H5.95179C5.67331 4.30181 5.40624 4.41243 5.20932 4.60934C5.01241 4.80626 4.90179 5.07333 4.90179 5.35181V7.35181C4.90179 7.63028 5.01241 7.89736 5.20932 8.09427C5.40624 8.29118 5.67331 8.40181 5.95179 8.40181H7.95179C8.23026 8.40181 8.49733 8.29118 8.69425 8.09427C8.89116 7.89736 9.00179 7.63028 9.00179 7.35181V4.35181ZM5.96179 10.3018H5.91179V10.3518V20.3168V20.3668H5.96179H7.95179H8.00179V20.3168V15.3518C8.00179 14.8346 8.20723 14.3386 8.57293 13.9729C8.93862 13.6073 9.43461 13.4018 9.95179 13.4018H11.9518C12.469 13.4018 12.9649 13.6073 13.3306 13.9729C13.6963 14.3386 13.9018 14.8346 13.9018 15.3518V20.3168V20.3668H13.9518H19.9648H20.0148V20.3168V10.3518V10.3018H19.9648H17.9518C17.1965 10.3018 16.5063 10.0177 15.9852 9.55057L15.9518 9.52065L15.9184 9.55059C15.3781 10.0352 14.6776 10.3028 13.9519 10.3018H13.9518H11.9518C11.1965 10.3018 10.5063 10.0177 9.98516 9.55057L9.95177 9.52065L9.9184 9.55059C9.37813 10.0352 8.67764 10.3028 7.95185 10.3018H7.95179H5.96179ZM3.95995 9.52893C3.66351 9.25816 3.42548 8.92947 3.26068 8.56299C3.08946 8.18222 3.0012 7.76938 3.00179 7.35188V7.35181V5.35181C3.00179 4.56942 3.31259 3.81907 3.86582 3.26584C4.41905 2.71261 5.1694 2.40181 5.95179 2.40181H19.9518C20.7342 2.40181 21.4845 2.71261 22.0378 3.26584C22.591 3.81907 22.9018 4.56942 22.9018 5.35181V7.35181C22.9018 8.21914 22.5282 8.99984 21.9312 9.53972L21.9148 9.55461V9.57681V20.3168C21.9148 20.834 21.7093 21.33 21.3436 21.6957C20.9779 22.0614 20.482 22.2668 19.9648 22.2668H12.3248V22.2659L12.3155 22.2677C12.1956 22.2904 12.0738 22.3018 11.9518 22.3018H9.95179C9.82976 22.3018 9.70799 22.2904 9.58808 22.2677L9.58824 22.2668H9.57878H5.96279C5.44561 22.2668 4.94962 22.0614 4.58393 21.6957C4.21823 21.33 4.01279 20.834 4.01279 20.3168V9.59681V9.47611L3.95995 9.52893ZM12.0018 15.3518V15.3018H11.9518H9.95179H9.90178V15.3518V20.3168V20.3668H9.95179H11.9518V20.3178H12.0018V20.3168V20.2668V15.3518ZM15.0018 4.35181V4.30181H14.9518H10.9518H10.9018V4.35181V7.35181C10.9018 7.63028 11.0124 7.89736 11.2093 8.09427C11.4062 8.29118 11.6733 8.40181 11.9518 8.40181H13.9518C14.2303 8.40181 14.4973 8.29118 14.6942 8.09427C14.8912 7.89736 15.0018 7.63028 15.0018 7.35181V4.35181ZM16.9518 4.30181H16.9018V4.35181V7.35181C16.9018 7.63028 17.0124 7.89736 17.2093 8.09427C17.4062 8.29118 17.6733 8.40181 17.9518 8.40181H19.9518C20.2303 8.40181 20.4973 8.29118 20.6942 8.09427C20.8912 7.89736 21.0018 7.63028 21.0018 7.35181V5.35181C21.0018 5.07333 20.8912 4.80626 20.6942 4.60934C20.4973 4.41243 20.2303 4.30181 19.9518 4.30181H16.9518ZM16.9518 13.4018H17.9518C18.2037 13.4018 18.4454 13.5019 18.6235 13.6801C18.8017 13.8582 18.9018 14.0999 18.9018 14.3518V17.3518C18.9018 17.6038 18.8017 17.8454 18.6235 18.0236C18.4454 18.2017 18.2037 18.3018 17.9518 18.3018H16.9518C16.6998 18.3018 16.4582 18.2017 16.28 18.0236C16.1019 17.8454 16.0018 17.6038 16.0018 17.3518V14.3518C16.0018 14.0999 16.1019 13.8582 16.28 13.6801C16.4582 13.5019 16.6998 13.4018 16.9518 13.4018Z" fill="#181725" stroke="white" stroke-width="0.1"/>
</svg>
