<svg width="23" height="16" viewBox="0 0 23 16" fill="none" xmlns="http://www.w3.org/2000/svg">
<path d="M21.1941 0H11.3695H1.54497C1.00238 0 0.5625 0.43988 0.5625 0.98247V15.0175C0.5625 15.5601 1.00238 16 1.54497 16H11.3695H21.1941C21.7367 16 22.1766 15.5601 22.1766 15.0175V0.98247C22.1766 0.43988 21.7367 0 21.1941 0Z" fill="#5286F9"/>
<path d="M12.1204 5.2042C12.3363 5.45158 12.5244 5.72387 12.6792 6.0165C12.9927 6.60924 13.1712 7.28405 13.1712 8.00002C13.1712 8.71599 12.9927 9.39071 12.6792 9.98353C12.5244 10.2762 12.3363 10.5484 12.1204 10.7958C11.8982 11.0503 11.6463 11.2781 11.37 11.4741C12.0646 11.9665 12.9118 12.2573 13.8261 12.2573C16.1736 12.2573 18.0835 10.3475 18.0835 8.00002C18.0835 5.65257 16.1736 3.74268 13.8261 3.74268C12.9118 3.74268 12.0646 4.03337 11.37 4.52589C11.6463 4.72185 11.8981 4.94969 12.1204 5.2042Z" fill="#FFB655"/>
<path d="M12.6795 6.01654C12.5247 5.72382 12.3367 5.45162 12.1207 5.20424C11.8984 4.94964 11.6466 4.72193 11.3703 4.52601C10.6758 4.03349 9.8285 3.7428 8.91416 3.7428C6.56667 3.7428 4.65686 5.65265 4.65686 8.0001C4.65686 10.3475 6.56671 12.2574 8.91416 12.2574C9.8285 12.2574 10.6758 11.9667 11.3703 11.4742C11.6467 11.2783 11.8984 11.0504 12.1207 10.7959C12.3367 10.5485 12.5247 10.2762 12.6795 9.9837C12.993 9.39087 13.1715 8.71606 13.1715 8.00018C13.1715 7.28405 12.993 6.60928 12.6795 6.01654Z" fill="#D8143A"/>
<path d="M8.91339 12.2574C6.5659 12.2574 4.65609 10.3476 4.65609 8.00013C4.65609 5.65268 6.56594 3.74283 8.91339 3.74283C9.82773 3.74283 10.6749 4.03352 11.3695 4.52604V0H1.54497C1.00238 0 0.5625 0.43988 0.5625 0.98247V15.0175C0.5625 15.5601 1.00238 16 1.54497 16H11.3695V11.4741C10.6749 11.9666 9.82773 12.2574 8.91339 12.2574Z" fill="#3D6DEB"/>
</svg>
